# xmcd
#
# Track frame offsets:
#	150
#	22714
#	42374
#	63911
#	83444
#	105407
#	124450
#	144322
#	166232
#	186576
#	207224
#	223615
#	241156
#	270485
#	286778
#	308037
#
# Disc length: 4384 seconds
#
# Revision: 1
# Processed by: cddbd v1.5.2PL0 Copyright (c) Steve Scherf et al.
# Submitted via: EasyCDDAExtractor 10.0.5.1
#
DISCID=d4111e10
DTITLE=Rod Stewart - Story So Far: Very Best Of
DYEAR=2001
DGENRE=Blues
TTITLE0=Maggie May
TTITLE1=You Wear It Well
TTITLE2=Baby Jane
TTITLE3=Da Ya Think I'm Sexy
TTITLE4=I Was Only Joking
TTITLE5=This Old Heart Of Mine
TTITLE6=Sailing
TTITLE7=I Don't Want To Talk About It
TTITLE8=You're In My Heart
TTITLE9=Young Turks
TTITLE10=What Am I Gonna Do (I'm So In Love With You)
TTITLE11=The First Cut Is The Deepest
TTITLE12=The Killing Of George (Part I and Ii)
TTITLE13=Tonight's The Night
TTITLE14=Every Beat Of My Heart
TTITLE15=Downtown Train
EXTD=
EXTT0=
EXTT1=
EXTT2=
EXTT3=
EXTT4=
EXTT5=
EXTT6=
EXTT7=
EXTT8=
EXTT9=
EXTT10=
EXTT11=
EXTT12=
EXTT13=
EXTT14=
EXTT15=
PLAYORDER=
